<svg xmlns="http://www.w3.org/2000/svg" viewBox="0 0 640 640" style="fill: display: block; width: 100%; height: 100%;">
    <path
        d="M463.9 116.1L271.9 4.2C267.8 1.9 260.7 0 255.1 0s-10.9 1.9-15 4.3c-64 37.3-128 74.6-192 111.9C38.2 121.9 32 132.8 32 144.5c0 74.3 0 148.7 0 223c0 11.7 6.2 22.5 16.1 28.4c64 37.3 128 74.6 192 111.9c4.1 2.3 11.2 4.2 15.9 4.2s11.8-1.9 15.9-4.3c25.4-14.8 50.8-29.6 76.2-44.4c-2.9-4.5-5.6-9.1-8.1-13.8c-25.3 14.8-50.7 29.5-76 44.3c0-28.9 0-57.7 0-86.6c19.7-2.1 39.4-4.2 59.1-6.3c-1-5.2-1.7-10.5-2.3-15.9c-16.5 1.8-33 3.5-49.4 5.3c37.3-60.6 74.5-121.1 111.7-181.6c2.8 5.9 5.6 11.8 8.4 17.6c4.3-3.2 8.8-6.2 13.4-9c-3.6-7.6-7.2-15.2-10.9-22.7c23.3-16.9 46.5-33.8 69.8-50.7c-.1 .2 .1 .3 .1 .6c0 16.8 0 33.6 0 50.4c5.3-1 10.6-1.7 16-2.2c0-16.1 0-32.1 0-48.2c0-11.7-6.2-22.6-16.1-28.4zM256 384.8L142.3 200c75.8 0 151.6 0 227.4 0C331.8 261.6 293.9 323.2 256 384.8zM48.2 143.8l69.8 50.7C94.6 243.3 71.3 292 48 340.7c0-65.4 0-130.8 0-196.2c0-.3 .2-.4 .2-.7zM278.9 26.9l176.9 103c-23.3 16.9-46.6 33.9-69.9 50.8c-35.7-51.3-71.4-102.6-107-153.8zM368.7 184l-225.4 0C180.9 130 218.4 76 256 22c37.6 54 75.1 108 112.7 162zm-242.5-3.2l-70-50.9c59-34.3 117.9-68.7 176.9-103c-35.7 51.3-71.3 102.6-106.9 153.9zM51.7 370.1l77.1-161.5c37.3 60.6 74.5 121.1 111.8 181.7c-63-6.7-126-13.5-188.9-20.2zm14.2 17.6L248 407.2c0 28.9 0 57.7 0 86.6C187.3 458.4 126.6 423 65.9 387.7zM496 240c-45.7 0-88 24.4-110.9 64s-22.9 88.4 0 128s65.1 64 110.9 64s88-24.4 110.9-64s22.9-88.4 0-128S541.7 240 496 240zm0 272c-51.4 0-99-27.4-124.7-72s-25.7-99.4 0-144s73.3-72 124.7-72s99 27.4 124.7 72s25.7 99.4 0 144S547.4 512 496 512zM426.3 354.3l64-64c3.1-3.1 8.2-3.1 11.3 0c21.4 21.3 42.7 42.7 64.1 64c3.1 3.1 3.1 8.2 0 11.3s-8.2 3.1-11.3 0c-16.8-16.8-33.5-33.5-50.3-50.3c0 41.6 0 83.1 0 124.7c0 4.4-3.6 8-8 8s-8-3.6-8-8c0-41.6 0-83.1 0-124.7c-16.8 16.8-33.5 33.5-50.3 50.3c-3.1 3.1-8.2 3.1-11.3 0s-3.1-8.2 0-11.3c-.1 0-.1 0-.2 0z">
    </path>
</svg>